<?xml version="1.0" encoding="UTF-8"?>
<svg id="Layer_1" xmlns="http://www.w3.org/2000/svg" version="1.1" viewBox="0 0 811.6 336.1">
  <!-- Generator: Adobe Illustrator 29.3.1, SVG Export Plug-In . SVG Version: 2.1.0 Build 151)  -->
  <defs>
    <style>
      .st0 {
        fill: #fff;
      }

      .st1 {
        fill: #1b75bb;
      }

      .st2 {
        fill: #323232;
      }
    </style>
  </defs>
  <g>
    <path class="st2" d="M428.2,74.6h36.4c8.7,0,15.6.9,20.7,2.7,4.7,1.7,7.9,3.8,9.5,6.3,1.6,2.5,2.4,6,2.4,10.3v13.6c0,4.1-1.2,7.2-3.4,9.5-2.3,2.2-5.8,3.9-10.5,4.9v.6c5.5.9,10,2.8,13.4,5.7,3.4,2.9,5.1,6.5,5.1,10.7v17.1c0,7.4-2.8,12.6-8.3,15.7-5.5,3-14.8,4.5-27.7,4.5h-37.5v-101.7ZM465,119.1c6.4,0,10.9-1,13.7-2.9,2.8-1.9,4.2-5,4.2-9.2v-11.9c0-3.9-1.4-6.6-4.2-8.2-2.8-1.6-7.5-2.4-14.1-2.4h-21.2v34.5h21.6ZM465.6,165.8c7.6,0,13-.8,16.1-2.4,3.1-1.6,4.7-4.2,4.7-8v-15.4c0-2.7-.5-4.9-1.6-6.5-1.1-1.6-2.8-2.8-5.1-3.5-2.3-.6-4.3-1-6.1-1.2-1.8-.2-4.4-.2-8-.2h-22.3v37.1h22.3Z"/>
    <path class="st2" d="M541.3,177.4l-29.3-77h15.4l21.2,61.9h.3l19.1-61.9h14.3l-38.1,108.5h-14.7l11.9-31.5Z"/>
    <path class="st2" d="M597.9,209.1v-10c12.5,1.5,21.7,2.2,27.4,2.2s12.5-1.2,15.8-3.4c3.3-2.3,4.9-6.1,4.9-11.4v-18.2c-.2,3.3-2.5,5.8-6.8,7.4-4.3,1.6-9.8,2.4-16.4,2.4s-13.9-.7-18.3-2.2c-4.3-1.5-7.4-3.9-9.2-7.2-1.8-3.3-2.7-7.9-2.7-13.6v-30.9c0-9,2.4-15.4,7.3-19.3,4.9-3.9,12.8-5.8,23.9-5.8s20.9,3,23.2,8.9v-7.4h13.2v83.1c0,7-1.3,12.5-3.9,16.5-2.6,4-6.5,6.8-11.8,8.4-5.2,1.6-12,2.4-20.4,2.4s-19.1-.6-26.2-1.7ZM641.5,165.8c3-1.8,4.5-5.1,4.5-10v-34.3c0-3.5-.5-6.1-1.6-7.8-1.1-1.8-3.1-3.1-6-3.8-2.9-.8-7.2-1.2-12.9-1.2s-9.3.4-12,1.1c-2.7.7-4.5,2-5.5,3.8-1,1.8-1.5,4.5-1.5,7.9v34.3c0,3.6.5,6.2,1.6,8,1,1.8,2.9,3,5.6,3.7,2.7.7,6.7,1,12.1,1s12.6-.9,15.7-2.7Z"/>
    <path class="st2" d="M687.1,209.1v-10c12.5,1.5,21.7,2.2,27.4,2.2s12.5-1.2,15.8-3.4c3.3-2.3,4.9-6.1,4.9-11.4v-18.2c-.2,3.3-2.5,5.8-6.8,7.4-4.3,1.6-9.8,2.4-16.4,2.4s-13.9-.7-18.3-2.2c-4.3-1.5-7.4-3.9-9.2-7.2-1.8-3.3-2.7-7.9-2.7-13.6v-30.9c0-9,2.4-15.4,7.3-19.3,4.9-3.9,12.8-5.8,23.9-5.8s20.9,3,23.2,8.9v-7.4h13.2v83.1c0,7-1.3,12.5-3.9,16.5-2.6,4-6.5,6.8-11.8,8.4-5.2,1.6-12,2.4-20.4,2.4s-19.1-.6-26.2-1.7ZM730.7,165.8c3-1.8,4.5-5.1,4.5-10v-34.3c0-3.5-.5-6.1-1.6-7.8-1.1-1.8-3.1-3.1-6-3.8-2.9-.8-7.2-1.2-12.9-1.2s-9.3.4-12,1.1c-2.7.7-4.5,2-5.5,3.8-1,1.8-1.5,4.5-1.5,7.9v34.3c0,3.6.5,6.2,1.6,8,1,1.8,2.9,3,5.6,3.7,2.7.7,6.7,1,12.1,1s12.6-.9,15.7-2.7Z"/>
    <path class="st2" d="M462.6,208.5h-34.5v-10.7h84.2v10.7h-34.3v91.1h-15.4v-91.1Z"/>
    <path class="st2" d="M525.5,277.9v-29.9c0-9.2,2.6-15.8,7.9-19.8,5.3-4,13.8-6,25.6-6s19.3,1.9,24.2,5.8c5,3.9,7.4,10.6,7.4,20.1v16.8h-50.9v11.4c0,5.2,1.8,9,5.5,11.3,3.7,2.3,9.3,3.4,16.9,3.4s15.7-1.3,25.5-3.8v10.8c-9.6,2.1-18.8,3.1-27.4,3.1-23.2,0-34.8-7.7-34.8-23.2ZM576.6,255.5v-11.9c0-4.6-1.4-7.8-4.2-9.5-2.8-1.7-7.5-2.6-14.2-2.6s-11.2.9-14.1,2.6c-2.9,1.7-4.4,4.9-4.4,9.5v11.9h36.8Z"/>
    <path class="st2" d="M618.8,299.1c-3.9-1.4-6.7-3.8-8.5-7.2s-2.6-8.4-2.6-14.9.8-10.2,2.4-13.4c1.6-3.2,4.4-5.5,8.3-6.8,3.9-1.4,9.5-2,16.7-2h22.7v-12.1c0-2.8-.5-5-1.6-6.5-1.1-1.5-2.9-2.6-5.5-3.2-2.6-.6-6.3-.9-11.2-.9-7.8,0-16.5.6-26,1.9v-10.3c10.3-.9,19.7-1.4,28.1-1.4s15.3.7,19.4,2c4.2,1.3,7.1,3.6,8.6,6.8,1.6,3.2,2.4,8.3,2.4,15v53.6h-13.6v-7.2c-1.2,5.9-8.8,8.8-22.9,8.8s-12.8-.7-16.7-2ZM637.9,291.9c5.1,0,9.5-.4,13-1.1,4.7-.9,7.1-3.1,7.1-6.6v-20.7h-21.8c-4.5,0-7.7.3-9.7,1-2,.7-3.3,2-3.9,3.8-.6,1.9-.9,4.9-.9,9.1s.4,6.7,1.1,8.7c.7,2,2,3.5,3.9,4.4,1.9.9,4.7,1.3,8.5,1.3h2.8Z"/>
    <path class="st2" d="M696.5,223.7h14.1v9.2c1.5-7.2,10-10.8,25.5-10.8s20.5,3.4,23.7,10.3c.9-3.3,3.8-5.9,8.5-7.7,4.8-1.8,10.6-2.7,17.5-2.7s16,1.8,19.9,5.2c3.9,3.5,5.8,9,5.8,16.5v55.6h-14.1v-54.7c0-2-.2-3.6-.5-4.9-.3-1.3-.9-2.5-1.9-3.8-2.1-2.6-6.7-3.9-13.9-3.9s-9.7.4-12.4,1.1c-2.7.7-4.6,2-5.6,3.8-1,1.8-1.5,4.3-1.5,7.7v54.7h-14.1v-54.7c0-2-.2-3.6-.5-4.9-.3-1.3-.9-2.5-1.9-3.8-2.1-2.6-6.7-3.9-13.8-3.9s-10.1.4-13,1.1c-2.9.7-5,2-6.1,3.7-1.2,1.7-1.7,4.3-1.7,7.8v54.7h-14.1v-75.9Z"/>
  </g>
  <path class="st2" d="M376.3,249.3c-.6,0-1.1,0-1.7,0h-83.3l61.8-45.3h0c28.4-20.5,46.9-53.8,46.9-91.4,0-62-50.5-112.5-112.5-112.5s-66.8,16.3-87.5,41.8C179.4,16.3,147.8,0,112.5,0s-44,6.8-61.7,18.5V7.5S0,7.5,0,7.5v292.5h50.2l.7-187.4c0-34,27.7-61.7,61.7-61.7s61.7,27.7,61.7,61.7v117.7l51.6-38v-79.7c0-34,27.7-61.7,61.7-61.7s61.7,27.7,61.7,61.7-10.3,39.1-26.1,50.4c-.4.2-.7.5-1.2.8l-100.3,73.5h0s-22.2,16.3-22.2,16.3l-2.1,1.5c-.2.2-.4.4-.7.6l-22.5,16.5-1.2,27.9h227.1l.2-47v-3.8h-23.9Z"/>
  <g>
    <path class="st1" d="M314.1,112.5c0,14.4-11.7,26.1-26.1,26.1s-26.1-11.7-26.1-26.1,11.7-26.1,26.1-26.1,26.1,11.7,26.1,26.1Z"/>
    <path class="st1" d="M288,72.7c-22,0-39.8,17.8-39.8,39.8s17.8,39.8,39.8,39.8,39.8-17.8,39.8-39.8-17.8-39.8-39.8-39.8ZM305.4,142.5h-34.8l-17.4-30.1,17.4-30.1h34.8l17.4,30.1-17.4,30.1Z"/>
  </g>
  <path class="st0" d="M314.1,112.5c0,14.4-11.7,26.1-26.1,26.1s-26.1-11.7-26.1-26.1,11.7-26.1,26.1-26.1,26.1,11.7,26.1,26.1Z"/>
  <path class="st1" d="M314.1,112.5c0,14.4-11.7,26.1-26.1,26.1s-26.1-11.7-26.1-26.1,11.7-26.1,26.1-26.1,26.1,11.7,26.1,26.1Z"/>
  <rect class="st1" y="327.3" width="811.6" height="8.8"/>
</svg>