<?xml version="1.0" encoding="UTF-8"?>
<svg id="Layer_1" xmlns="http://www.w3.org/2000/svg" version="1.1" viewBox="0 0 400.2 336.2">
  <!-- Generator: Adobe Illustrator 29.3.0, SVG Export Plug-In . SVG Version: 2.1.0 Build 146)  -->
  <defs>
    <style>
      .st0 {
        fill: #fff;
      }

      .st1 {
        fill: #1b75bb;
      }
    </style>
  </defs>
  <path class="st0" d="M376.3,249.3c-.6,0-1.1,0-1.7,0h-83.3l61.8-45.3h0c28.4-20.5,46.9-53.8,46.9-91.4,0-62.1-50.5-112.5-112.5-112.5s-66.8,16.3-87.5,41.8C179.4,16.3,147.8,0,112.5,0s-44,6.8-61.7,18.5V7.5S0,7.5,0,7.5v292.5h50.2l.7-187.4c0-34,27.7-61.7,61.7-61.7s61.7,27.7,61.7,61.7v117.7l51.6-38v-79.7c0-34,27.7-61.7,61.7-61.7s61.7,27.7,61.7,61.7-10.3,39.1-26.1,50.4c-.4.2-.7.5-1.2.8l-100.3,73.5h0s-22.2,16.3-22.2,16.3l-2.1,1.5c-.2.2-.4.4-.7.6l-22.5,16.5-1.2,27.9h227.1l.2-47v-3.8h-23.9Z"/>
  <g>
    <path class="st1" d="M314.1,112.5c0,14.4-11.7,26.1-26.1,26.1s-26.1-11.7-26.1-26.1,11.7-26.1,26.1-26.1,26.1,11.7,26.1,26.1Z"/>
    <path class="st1" d="M288,72.7c-22,0-39.8,17.8-39.8,39.8s17.8,39.8,39.8,39.8,39.8-17.8,39.8-39.8-17.8-39.8-39.8-39.8ZM305.4,142.6h-34.8l-17.4-30.1,17.4-30.1h34.8l17.4,30.1-17.4,30.1Z"/>
  </g>
  <path class="st0" d="M314.1,112.5c0,14.4-11.7,26.1-26.1,26.1s-26.1-11.7-26.1-26.1,11.7-26.1,26.1-26.1,26.1,11.7,26.1,26.1Z"/>
  <path class="st1" d="M314.1,112.5c0,14.4-11.7,26.1-26.1,26.1s-26.1-11.7-26.1-26.1,11.7-26.1,26.1-26.1,26.1,11.7,26.1,26.1Z"/>
  <rect class="st1" y="327.4" width="400.2" height="8.8"/>
</svg>